<svg width="20" height="20" viewBox="0 0 20 20" fill="none" xmlns="http://www.w3.org/2000/svg">
<path d="M4.17456 3H17.9514C18.7192 3 19.2006 3.82948 18.8196 4.49614L16.2504 8.99228C15.8943 9.61543 15.2316 10 14.5139 10H7.67456M7.67456 10L6.13081 12.47C5.71453 13.136 6.19337 14 6.97881 14H17.6746M7.67456 10L3.72735 2.10557C3.38856 1.428 2.69604 1 1.93849 1H1.67456M7.67456 18C7.67456 18.5523 7.22685 19 6.67456 19C6.12228 19 5.67456 18.5523 5.67456 18C5.67456 17.4477 6.12228 17 6.67456 17C7.22685 17 7.67456 17.4477 7.67456 18ZM17.6746 18C17.6746 18.5523 17.2268 19 16.6746 19C16.1223 19 15.6746 18.5523 15.6746 18C15.6746 17.4477 16.1223 17 16.6746 17C17.2268 17 17.6746 17.4477 17.6746 18Z" stroke="#A4A6A9" stroke-width="1.5" stroke-linecap="round" stroke-linejoin="round"/>
</svg>
