<svg width="25" height="25" viewBox="0 0 25 25" fill="none" xmlns="http://www.w3.org/2000/svg">
<rect width="25" height="25" rx="4" fill="#BA9EB7"/>
<path d="M17.5284 8.90769C17.5345 9.10057 17.5017 9.29272 17.4321 9.47271C17.3625 9.6527 17.2575 9.81687 17.1232 9.95547C16.9889 10.0941 16.8281 10.2043 16.6504 10.2795C16.4727 10.3548 16.2817 10.3936 16.0887 10.3936C15.8957 10.3936 15.7047 10.3548 15.527 10.2795C15.3493 10.2043 15.1885 10.0941 15.0543 9.95547C14.92 9.81687 14.8149 9.6527 14.7453 9.47271C14.6757 9.29272 14.643 9.10057 14.6491 8.90769C14.6609 8.53374 14.8177 8.17907 15.0864 7.91873C15.3551 7.65839 15.7146 7.51281 16.0887 7.51281C16.4629 7.51281 16.8223 7.65839 17.091 7.91873C17.3597 8.17907 17.5166 8.53374 17.5284 8.90769ZM3.875 7.46875C3.875 6.51563 4.25363 5.60154 4.92759 4.92759C5.60154 4.25363 6.51563 3.875 7.46875 3.875H17.5284C18.4815 3.875 19.3956 4.25363 20.0695 4.92759C20.7435 5.60154 21.1221 6.51563 21.1221 7.46875V9.70837C20.6497 9.60346 20.1613 9.59223 19.6846 9.67531V7.46875C19.6846 6.89688 19.4574 6.34843 19.0531 5.94405C18.6487 5.53968 18.1002 5.3125 17.5284 5.3125H7.46875C6.89688 5.3125 6.34843 5.53968 5.94405 5.94405C5.53968 6.34843 5.3125 6.89688 5.3125 7.46875V17.5284C5.3125 17.8619 5.38725 18.1767 5.52237 18.4584L10.7707 13.2101C11.229 12.7519 11.8505 12.4945 12.4986 12.4945C13.1466 12.4945 13.7682 12.7519 14.2264 13.2101L14.7152 13.6989L13.7003 14.7152L13.2101 14.2264C13.1167 14.133 13.0058 14.0589 12.8837 14.0083C12.7616 13.9577 12.6307 13.9317 12.4986 13.9317C12.3664 13.9317 12.2356 13.9577 12.1135 14.0083C11.9914 14.0589 11.8804 14.133 11.787 14.2264L6.53869 19.4733C6.82044 19.6084 7.13525 19.6846 7.46875 19.6846H10.0505L9.69112 21.1221H7.46875C6.51563 21.1221 5.60154 20.7435 4.92759 20.0695C4.25363 19.3956 3.875 18.4815 3.875 17.5284V7.46875ZM20.0656 11.0726C19.5615 11.1301 19.0918 11.3566 18.733 11.7151L12.5719 17.8791C12.0723 18.3785 11.7141 19.0016 11.534 19.6846L11.5211 19.7321L11.0855 21.4729C11.0487 21.6198 11.0505 21.7738 11.0909 21.9199C11.1313 22.0659 11.2089 22.199 11.316 22.3061C11.4232 22.4132 11.5562 22.4908 11.7023 22.5312C11.8483 22.5716 12.0023 22.5735 12.1493 22.5366L13.8886 22.1011C14.5904 21.9258 15.2314 21.5631 15.743 21.0517L21.907 14.8877C22.2365 14.5588 22.4556 14.1355 22.5336 13.6765C22.6117 13.2175 22.545 12.7456 22.3428 12.3263C22.1405 11.9069 21.8127 11.5609 21.4049 11.3362C20.9971 11.1116 20.5295 11.0194 20.067 11.0726H20.0656Z" fill="white"/>
</svg>
