<svg width="20" height="16" viewBox="0 0 20 16" fill="none" xmlns="http://www.w3.org/2000/svg">
<path d="M15.4108 14.7058H16.8429C17.9011 14.7058 18.823 13.8206 18.4868 12.8172C17.9745 11.2881 16.7141 10.3634 14.4984 10.0431M11.5741 6.91204C11.8528 7.00016 12.1721 7.04187 12.532 7.04187C14.1286 7.04187 14.9269 6.22074 14.9269 4.16791C14.9269 2.11508 14.1286 1.29395 12.532 1.29395C12.1721 1.29395 11.8528 1.33565 11.5741 1.42377M6.78404 9.91583C10.1978 9.91583 12.0394 10.8564 12.7113 12.7374C13.0828 13.7776 12.1155 14.7058 11.011 14.7058H2.55713C1.45256 14.7058 0.485287 13.7776 0.856807 12.7374C1.52864 10.8564 3.37033 9.91583 6.78404 9.91583ZM6.78404 7.04187C8.38069 7.04187 9.17901 6.22074 9.17901 4.16791C9.17901 2.11508 8.38069 1.29395 6.78404 1.29395C5.1874 1.29395 4.38908 2.11508 4.38908 4.16791C4.38908 6.22074 5.1874 7.04187 6.78404 7.04187Z" stroke="#240F51" stroke-width="1.5" stroke-linecap="round" stroke-linejoin="round"/>
</svg>
