<svg width="19" height="18" viewBox="0 0 19 18" fill="none" xmlns="http://www.w3.org/2000/svg">
<path d="M9.39722 17C13.8155 17 17.3972 13.4183 17.3972 9C17.3972 4.58172 13.8155 1 9.39722 1C4.97894 1 1.39722 4.58172 1.39722 9C1.39722 13.4183 4.97894 17 9.39722 17Z" stroke="#240F51" stroke-width="1.5" stroke-linecap="round" stroke-linejoin="round"/>
<path d="M11.5534 7.3351C11.5534 8.51986 10.5934 9.86082 9.40868 9.86082C8.22392 9.86082 7.26392 8.51986 7.26392 7.3351C7.26392 6.15034 8.22392 5.57129 9.40868 5.57129C10.5934 5.57129 11.5534 6.14272 11.5534 7.3351Z" stroke="#240F51" stroke-width="1.5" stroke-linecap="round" stroke-linejoin="round"/>
<path d="M4.90198 15.667C5.15764 14.6396 5.74399 13.7248 6.57074 13.0634C7.39748 12.4021 8.41874 12.0309 9.4772 12.0071C10.5356 11.9833 11.5726 12.3081 12.4283 12.9316C13.2839 13.5551 13.9108 14.4426 14.2125 15.4575" stroke="#240F51" stroke-width="1.5" stroke-linecap="round" stroke-linejoin="round"/>
</svg>
