<svg width="20" height="20" viewBox="0 0 20 20" fill="none" xmlns="http://www.w3.org/2000/svg">
<path d="M2.35158 14.7266H3.86193C3.96505 14.7266 4.06173 14.7717 4.12618 14.8512C4.27657 15.0338 4.43771 15.21 4.60743 15.3776C5.30161 16.0724 6.12386 16.6262 7.02872 17.0082C7.96618 17.4042 8.97377 17.6073 9.99142 17.6055C11.0205 17.6055 12.0174 17.4035 12.9541 17.0082C13.859 16.6262 14.6812 16.0724 15.3754 15.3776C16.0708 14.6851 16.6253 13.8642 17.0082 12.9606C17.4057 12.0239 17.6055 11.0291 17.6055 10C17.6055 8.97093 17.4035 7.9762 17.0082 7.03949C16.6258 6.13499 16.0758 5.32074 15.3754 4.62249C14.675 3.92425 13.8608 3.37425 12.9541 2.99183C12.0174 2.59652 11.0205 2.39456 9.99142 2.39456C8.96232 2.39456 7.96544 2.59437 7.02872 2.99183C6.12208 3.37425 5.30783 3.92425 4.60743 4.62249C4.43771 4.79222 4.27872 4.96839 4.12618 5.14886C4.06173 5.22835 3.9629 5.27347 3.86193 5.27347H2.35158C2.21622 5.27347 2.13243 5.12308 2.20763 5.00921C3.85548 2.44827 6.73868 0.753158 10.0151 0.761751C15.1627 0.774642 19.2899 4.95335 19.2383 10.0946C19.1867 15.1541 15.066 19.2383 9.99142 19.2383C6.72364 19.2383 3.85333 17.5453 2.20763 14.9909C2.13458 14.877 2.21622 14.7266 2.35158 14.7266ZM0.441614 9.86468L3.49025 7.45843C3.60411 7.3682 3.76954 7.44984 3.76954 7.59378V9.22659H10.5156C10.6102 9.22659 10.6875 9.30394 10.6875 9.39847V10.6016C10.6875 10.6961 10.6102 10.7735 10.5156 10.7735H3.76954V12.4063C3.76954 12.5502 3.60197 12.6319 3.49025 12.5416L0.441614 10.1354C0.42107 10.1193 0.404457 10.0988 0.393032 10.0753C0.381605 10.0519 0.375668 10.0261 0.375668 10C0.375668 9.97395 0.381605 9.9482 0.393032 9.92475C0.404457 9.9013 0.42107 9.88076 0.441614 9.86468Z" fill="#3D2E29"/>
</svg>
